<?xml version="1.0" encoding="UTF-8"?>
<svg id="Layer_2" data-name="Layer 2" xmlns="http://www.w3.org/2000/svg" viewBox="0 0 500 200">
  <defs>
    <style>
      .cls-1 {
        letter-spacing: -.02em;
      }

      .cls-2 {
        font-family: Bahnschrift-Light, Bahnschrift;
        font-size: 38.7px;
        font-variation-settings: 'wght' 300, 'wdth' 100;
        font-weight: 300;
      }

      .cls-3, .cls-4 {
        font-family: Bahnschrift, Bahnschrift;
        font-size: 201.72px;
        font-variation-settings: 'wght' 400, 'wdth' 100;
      }

      .cls-5 {
        letter-spacing: 0em;
      }

      .cls-4 {
        fill: #231f20;
      }
    </style>
  </defs>
  <g id="B-Astro">
    <g>
      <text class="cls-4" transform="translate(132.64 -30.25)"><tspan x="0" y="0">st</tspan><tspan class="cls-5" x="170.39" y="0">r</tspan><tspan x="254.51" y="0">o</tspan></text>
      <text class="cls-3" transform="translate(132.64 -30.25)"><tspan x="0" y="0">st</tspan><tspan class="cls-5" x="170.39" y="0">r</tspan><tspan x="254.51" y="0">o</tspan></text>
    </g>
  </g>
  <g id="B-APP">
    <path d="m33.19,129.29l-1.5,4.37c-3.18.54-6.17.82-8.95.82-4.69,0-8.64-.79-11.84-2.36l1.4-3.8c4.84,2.56,12.07,2.8,20.89.97Z"/>
    <g id="A">
      <path d="m103.85,91.61c-1.61,1.29-3.25,2.58-4.92,3.85-3.36,2.56-6.72,5-10.07,7.3-.4.28-.8.56-1.2.83-11.33,7.71-22.5,13.94-32.78,18.45-7.86,3.46-23.6,30.36-30.09,31.7l10.89-31.7,1.96-5.7c7.6-3.53,15.87-8.11,24.44-13.58,6.46-4.12,13.1-8.75,19.75-13.83.21-.16.42-.32.63-.48,5.49-4.22,10.69-8.5,15.52-12.77,27.87-24.61,43.86-48.91,36.9-58.03-4.33-5.68-16.73-4.31-32.98,2.46,23.4-10.83,42.65-13.16,49.45-4.25,10.1,13.24-11,46.5-47.5,75.75Z"/>
      <path d="m126.75,153.74h-21.86l-10.89-31.7-4.99-14.53-1.35-3.92c.4-.27.8-.55,1.2-.83,3.35-2.3,6.71-4.74,10.07-7.3,1.67-1.27,3.31-2.56,4.92-3.85l1.46,3.95,21.44,58.18Z"/>
      <path d="m96.5,71.66c-4.83,4.31-9.99,8.6-15.41,12.8l-16.25-47.29-22.53,65.59s-4.27,12.43-4.67,13.58l-1.96,5.7-2.49,7.25-1.5,4.37-6.9,20.08H2.93l7.97-21.62,1.4-3.8,1.45-3.94,1.59-4.32L56.19,9.24h17.3l23.01,62.42Z"/>
    </g>
    <g>
      <text class="cls-4" transform="translate(132.64 153.74)"><tspan x="0" y="0">st</tspan><tspan class="cls-5" x="170.39" y="0">r</tspan><tspan x="254.51" y="0">o</tspan></text>
      <text class="cls-3" transform="translate(132.64 153.74)"><tspan x="0" y="0">st</tspan><tspan class="cls-5" x="170.39" y="0">r</tspan><tspan x="254.51" y="0">o</tspan></text>
    </g>
    <g>
      <text class="cls-2" transform="translate(146.37 190.76)"><tspan class="cls-1" x="0" y="0">P</tspan><tspan x="23.15" y="0">art Picker</tspan></text>
      <text class="cls-2" transform="translate(146.37 190.76)"><tspan class="cls-1" x="0" y="0">P</tspan><tspan x="23.15" y="0">art Picker</tspan></text>
    </g>
  </g>
</svg>