<?xml version="1.0" encoding="UTF-8"?>
<svg id="Layer_2" data-name="Layer 2" xmlns="http://www.w3.org/2000/svg" xmlns:xlink="http://www.w3.org/1999/xlink" viewBox="0 0 165 165">
  <defs>
    <style>
      .cls-1 {
        fill: url(#linear-gradient-2);
      }

      .cls-2 {
        fill: #7f52a1;
      }

      .cls-3 {
        fill: url(#linear-gradient-3);
      }

      .cls-4 {
        fill: url(#linear-gradient);
      }
    </style>
    <linearGradient id="linear-gradient" x1="13.42" y1="152.23" x2="147.51" y2="17.15" gradientUnits="userSpaceOnUse">
      <stop offset="0" stop-color="#5b2d90"/>
      <stop offset=".12" stop-color="#6a3e98"/>
      <stop offset=".34" stop-color="#845ba7"/>
      <stop offset=".57" stop-color="#9770b1"/>
      <stop offset=".79" stop-color="#a37cb7"/>
      <stop offset="1" stop-color="#a781ba"/>
    </linearGradient>
    <linearGradient id="linear-gradient-2" x1="145.38" y1="209.07" x2="87.03" y2="74.09" gradientUnits="userSpaceOnUse">
      <stop offset="0" stop-color="#a781ba"/>
      <stop offset="1" stop-color="#3e246a"/>
    </linearGradient>
    <linearGradient id="linear-gradient-3" x1="9.81" y1="165.83" x2="105.59" y2="-2.83" gradientUnits="userSpaceOnUse">
      <stop offset="0" stop-color="#5b2d90"/>
      <stop offset=".97" stop-color="#a781ba"/>
    </linearGradient>
  </defs>
  <g id="C-A">
    <path class="cls-2" d="m37.29,130.3l-1.5,4.37c-3.18.54-6.17.82-8.95.82-4.69,0-8.64-.79-11.84-2.36l1.4-3.8c4.84,2.56,12.07,2.8,20.89.97Z"/>
    <g id="A">
      <path class="cls-4" d="m107.95,92.62c-1.61,1.29-3.25,2.58-4.92,3.85-3.36,2.56-6.72,5-10.07,7.3-.4.28-.8.56-1.2.83-11.33,7.71-22.5,13.94-32.78,18.45-7.86,3.46-23.6,30.36-30.09,31.7l10.89-31.7,1.96-5.7c7.6-3.53,15.87-8.11,24.44-13.58,6.46-4.12,13.1-8.75,19.75-13.83.21-.16.42-.32.63-.48,5.49-4.22,10.69-8.5,15.52-12.77,27.87-24.61,43.86-48.91,36.9-58.03-4.33-5.68-16.73-4.31-32.98,2.46,23.4-10.83,42.65-13.16,49.45-4.25,10.1,13.24-11,46.5-47.5,75.75Z"/>
      <path class="cls-1" d="m130.85,154.75h-21.86l-10.89-31.7-4.99-14.53-1.35-3.92c.4-.27.8-.55,1.2-.83,3.35-2.3,6.71-4.74,10.07-7.3,1.67-1.27,3.31-2.56,4.92-3.85l1.46,3.95,21.44,58.18Z"/>
      <path class="cls-3" d="m100.6,72.67c-4.83,4.31-9.99,8.6-15.41,12.8l-16.25-47.29-22.53,65.59s-4.27,12.43-4.67,13.58l-1.96,5.7-2.49,7.25-1.5,4.37-6.9,20.08H7.03l7.97-21.62,1.4-3.8,1.45-3.94,1.59-4.32L60.29,10.25h17.3l23.01,62.42Z"/>
    </g>
  </g>
</svg>