<?xml version="1.0" encoding="UTF-8"?>
<svg id="Layer_2" data-name="Layer 2" xmlns="http://www.w3.org/2000/svg" xmlns:xlink="http://www.w3.org/1999/xlink" viewBox="0 0 500 200">
  <defs>
    <style>
      .cls-1 {
        fill: url(#linear-gradient-2);
      }

      .cls-2 {
        letter-spacing: -.02em;
      }

      .cls-3 {
        font-family: Bahnschrift-Light, Bahnschrift;
        font-size: 38.7px;
        font-variation-settings: 'wght' 300, 'wdth' 100;
        font-weight: 300;
      }

      .cls-4 {
        letter-spacing: 0em;
      }

      .cls-5 {
        fill: url(#linear-gradient-5);
      }

      .cls-6 {
        fill: #231f20;
        font-family: Bahnschrift, Bahnschrift;
        font-size: 201.72px;
        font-variation-settings: 'wght' 400, 'wdth' 100;
      }

      .cls-7 {
        fill: #7f52a1;
      }

      .cls-8 {
        fill: url(#linear-gradient-3);
      }

      .cls-9 {
        fill: url(#linear-gradient);
      }

      .cls-10 {
        fill: url(#linear-gradient-4);
      }
    </style>
    <linearGradient id="linear-gradient" x1="9.32" y1="151.23" x2="143.41" y2="16.14" gradientUnits="userSpaceOnUse">
      <stop offset="0" stop-color="#5b2d90"/>
      <stop offset=".12" stop-color="#6a3e98"/>
      <stop offset=".34" stop-color="#845ba7"/>
      <stop offset=".57" stop-color="#9770b1"/>
      <stop offset=".79" stop-color="#a37cb7"/>
      <stop offset="1" stop-color="#a781ba"/>
    </linearGradient>
    <linearGradient id="linear-gradient-2" x1="141.28" y1="208.06" x2="82.94" y2="73.09" gradientUnits="userSpaceOnUse">
      <stop offset="0" stop-color="#a781ba"/>
      <stop offset="1" stop-color="#3e246a"/>
    </linearGradient>
    <linearGradient id="linear-gradient-3" x1="5.72" y1="164.82" x2="101.5" y2="-3.84" gradientUnits="userSpaceOnUse">
      <stop offset="0" stop-color="#5b2d90"/>
      <stop offset=".97" stop-color="#a781ba"/>
    </linearGradient>
    <linearGradient id="linear-gradient-4" x1="122.79" y1="88.49" x2="467.03" y2="88.49" gradientUnits="userSpaceOnUse">
      <stop offset="0" stop-color="#8559a5"/>
      <stop offset=".5" stop-color="#7e52a1"/>
      <stop offset="1" stop-color="#73479c"/>
    </linearGradient>
    <linearGradient id="linear-gradient-5" x1="149.78" y1="177.16" x2="340.63" y2="177.16" gradientUnits="userSpaceOnUse">
      <stop offset="0" stop-color="#8559a5"/>
      <stop offset=".5" stop-color="#7e52a1"/>
      <stop offset="1" stop-color="#73479c"/>
    </linearGradient>
  </defs>
  <g id="C-Astro">
    <text class="cls-6" transform="translate(132.64 -30.25)"><tspan x="0" y="0">st</tspan><tspan class="cls-4" x="170.39" y="0">r</tspan><tspan x="254.51" y="0">o</tspan></text>
  </g>
  <g id="C-APP">
    <path class="cls-7" d="m33.19,129.29l-1.5,4.37c-3.18.54-6.17.82-8.95.82-4.69,0-8.64-.79-11.84-2.36l1.4-3.8c4.84,2.56,12.07,2.8,20.89.97Z"/>
    <g id="A">
      <path class="cls-9" d="m103.85,91.61c-1.61,1.29-3.25,2.58-4.92,3.85-3.36,2.56-6.72,5-10.07,7.3-.4.28-.8.56-1.2.83-11.33,7.71-22.5,13.94-32.78,18.45-7.86,3.46-23.6,30.36-30.09,31.7l10.89-31.7,1.96-5.7c7.6-3.53,15.87-8.11,24.44-13.58,6.46-4.12,13.1-8.75,19.75-13.83.21-.16.42-.32.63-.48,5.49-4.22,10.69-8.5,15.52-12.77,27.87-24.61,43.86-48.91,36.9-58.03-4.33-5.68-16.73-4.31-32.98,2.46,23.4-10.83,42.65-13.16,49.45-4.25,10.1,13.24-11,46.5-47.5,75.75Z"/>
      <path class="cls-1" d="m126.75,153.74h-21.86l-10.89-31.7-4.99-14.53-1.35-3.92c.4-.27.8-.55,1.2-.83,3.35-2.3,6.71-4.74,10.07-7.3,1.67-1.27,3.31-2.56,4.92-3.85l1.46,3.95,21.44,58.18Z"/>
      <path class="cls-8" d="m96.5,71.66c-4.83,4.31-9.99,8.6-15.41,12.8l-16.25-47.29-22.53,65.59s-4.27,12.43-4.67,13.58l-1.96,5.7-2.49,7.25-1.5,4.37-6.9,20.08H2.93l7.97-21.62,1.4-3.8,1.45-3.94,1.59-4.32L56.19,9.24h17.3l23.01,62.42Z"/>
    </g>
    <g>
      <text class="cls-6" transform="translate(132.64 153.74)"><tspan x="0" y="0">st</tspan><tspan class="cls-4" x="170.39" y="0">r</tspan><tspan x="254.51" y="0">o</tspan></text>
      <g>
        <path class="cls-10" d="m167.56,153.45c-5.29-1.18-10.23-2.95-14.82-5.32-4.6-2.36-8.83-5.32-12.71-8.86l11.92-14.68c5.52,4.2,11,7.35,16.45,9.46,5.45,2.1,10.83,3.15,16.15,3.15,7.94,0,13.9-1.23,17.88-3.69,3.97-2.46,5.96-6.16,5.96-11.08,0-3.28-1.08-5.75-3.25-7.39-2.17-1.64-4.86-2.74-8.08-3.3-3.22-.56-7.75-1.07-13.59-1.53-.53,0-1.08-.02-1.67-.05s-1.15-.08-1.67-.15c-.26,0-.53-.01-.79-.05-.26-.03-.53-.05-.79-.05-6.63-.52-12.25-1.49-16.84-2.91-4.6-1.41-8.42-4.05-11.47-7.93-3.05-3.87-4.58-9.42-4.58-16.65s1.48-13.23,4.43-18.02c2.95-4.79,7.35-8.39,13.2-10.79,5.84-2.4,13.17-3.59,21.96-3.59,5.32,0,10.39.49,15.22,1.48,4.83.98,9.44,2.45,13.84,4.38,4.4,1.94,8.63,4.38,12.71,7.34l-12.11,14.68c-5.12-3.28-10.16-5.75-15.12-7.39-4.96-1.64-9.8-2.46-14.53-2.46-6.83,0-11.95,1.17-15.37,3.5-3.42,2.33-5.12,5.83-5.12,10.49,0,2.76.97,4.83,2.91,6.21,1.94,1.38,4.38,2.3,7.34,2.76,2.96.46,7.16.85,12.61,1.18.39.07.8.1,1.23.1s.87.03,1.33.1h.59c.2,0,.39.03.59.1,7.16.46,13.25,1.41,18.27,2.86,5.02,1.45,9.24,4.3,12.66,8.57,3.41,4.27,5.12,10.44,5.12,18.52,0,7.36-1.58,13.44-4.73,18.27-3.15,4.83-7.9,8.46-14.23,10.88-6.34,2.43-14.3,3.64-23.88,3.64-6.04,0-11.71-.59-16.99-1.77Z"/>
        <path class="cls-10" d="m245.12,51.51h46.09v18.12h-46.09v-18.12Zm16.3,95.88c-3.84-4.56-5.76-11.31-5.76-20.24V21.76h20.09v105.58c0,2.5.49,4.42,1.48,5.76.99,1.35,2.43,2.02,4.33,2.02h9.65v19.11h-11.62c-8.27,0-14.33-2.28-18.17-6.84Z"/>
        <path class="cls-10" d="m318.79,51.51h20.09v102.24h-20.09V51.51Zm49.54,19.3c-2.69-1.12-5.81-1.67-9.36-1.67-6.37,0-11.31,1.76-14.82,5.27s-5.27,8.39-5.27,14.63l-2.07-19.7c3.15-6.11,7.22-10.85,12.21-14.23,4.99-3.38,10.5-5.07,16.55-5.07,4.66,0,8.88.67,12.66,2.02,3.78,1.35,7.07,3.33,9.9,5.96l-13.1,17.73c-1.77-2.17-4.01-3.81-6.7-4.92Z"/>
        <path class="cls-10" d="m419.35,150c-6.3-3.48-11.11-8.55-14.43-15.22-3.32-6.66-4.97-14.69-4.97-24.08v-16.65c0-9.26,1.66-17.19,4.97-23.79,3.31-6.6,8.12-11.62,14.43-15.07s13.89-5.17,22.75-5.17,16.45,1.72,22.75,5.17,11.11,8.47,14.43,15.07c3.31,6.6,4.97,14.53,4.97,23.79v16.94c0,9.32-1.66,17.29-4.97,23.88-3.32,6.6-8.13,11.64-14.43,15.12-6.3,3.48-13.89,5.22-22.75,5.22s-16.45-1.74-22.75-5.22Zm39.05-20.49c3.84-4.4,5.76-10.57,5.76-18.52v-16.94c0-7.94-1.92-14.08-5.76-18.42-3.84-4.33-9.28-6.5-16.3-6.5s-12.46,2.17-16.3,6.5c-3.84,4.33-5.76,10.47-5.76,18.42v16.94c0,7.95,1.92,14.12,5.76,18.52,3.84,4.4,9.27,6.6,16.3,6.6s12.46-2.2,16.3-6.6Z"/>
      </g>
    </g>
    <g>
      <text class="cls-3" transform="translate(146.37 190.76)"><tspan class="cls-2" x="0" y="0">P</tspan><tspan x="23.15" y="0">art Picker</tspan></text>
      <g>
        <path class="cls-5" d="m149.78,163.29h2.73v27.47h-2.73v-27.47Zm1.99,14.28h8.8c1.07,0,2.02-.25,2.84-.74.82-.49,1.45-1.18,1.9-2.06.45-.88.67-1.9.67-3.06s-.22-2.2-.67-3.09c-.45-.89-1.08-1.58-1.9-2.07-.82-.49-1.77-.74-2.84-.74h-8.8v-2.53h8.67c1.64,0,3.09.35,4.34,1.05s2.22,1.69,2.91,2.96c.69,1.27,1.03,2.75,1.03,4.42s-.34,3.13-1.03,4.39-1.66,2.25-2.91,2.95-2.69,1.05-4.34,1.05h-8.67v-2.53Z"/>
        <path class="cls-5" d="m173.54,189.45c-1.26-1.06-1.89-2.55-1.89-4.48s.58-3.29,1.73-4.3c1.15-1.01,2.79-1.52,4.89-1.52h6.53l.26,2.53h-6.78c-1.26,0-2.24.29-2.92.86-.69.57-1.03,1.38-1.03,2.43,0,1.11.43,1.97,1.3,2.58.86.61,2.09.92,3.66.92,1.69,0,3-.17,3.94-.51.93-.34,1.4-.82,1.4-1.44l.4,2.57c-.39.4-.89.75-1.5,1.05-.61.3-1.31.52-2.1.67-.79.15-1.64.23-2.55.23-2.3,0-4.08-.53-5.34-1.59Zm11.09-11.13c0-1.59-.43-2.82-1.28-3.69-.85-.88-2.06-1.31-3.63-1.31-.93,0-1.85.15-2.75.45-.9.3-1.69.73-2.39,1.29l-1.99-1.36c.74-.89,1.73-1.59,2.94-2.09,1.22-.5,2.57-.75,4.06-.75,1.63,0,3.02.29,4.18.86,1.16.57,2.04,1.41,2.65,2.49.61,1.09.91,2.4.91,3.94v12.6h-2.73v-12.43Z"/>
        <path class="cls-5" d="m193.23,171.15h2.73v19.61h-2.73v-19.61Zm10.04,2.57c-.61-.21-1.32-.32-2.13-.32-1.64,0-2.92.44-3.82,1.31-.91.88-1.36,2.09-1.36,3.64l-.4-3.78c.72-1.17,1.66-2.08,2.83-2.73,1.17-.65,2.45-.97,3.83-.97.9,0,1.71.13,2.43.39.73.26,1.36.64,1.9,1.14l-1.76,2.27c-.4-.42-.91-.73-1.52-.95Z"/>
        <path class="cls-5" d="m208.26,171.15h8.86v2.34h-8.86v-2.34Zm3.13,18.39c-.74-.88-1.11-2.17-1.11-3.88v-20.22h2.73v20.25c0,.84.19,1.49.57,1.95.38.45.94.68,1.69.68h1.85v2.53h-2.23c-1.59,0-2.75-.44-3.49-1.31Z"/>
        <path class="cls-5" d="m233.21,163.29h2.73v27.47h-2.73v-27.47Zm1.99,14.28h8.8c1.07,0,2.02-.25,2.84-.74.82-.49,1.45-1.18,1.9-2.06.45-.88.67-1.9.67-3.06s-.22-2.2-.67-3.09c-.45-.89-1.08-1.58-1.9-2.07-.82-.49-1.77-.74-2.84-.74h-8.8v-2.53h8.67c1.64,0,3.09.35,4.34,1.05s2.22,1.69,2.91,2.96c.69,1.27,1.03,2.75,1.03,4.42s-.34,3.13-1.03,4.39-1.66,2.25-2.91,2.95-2.69,1.05-4.34,1.05h-8.67v-2.53Z"/>
        <path class="cls-5" d="m257.54,163.29h2.73v2.72h-2.73v-2.72Zm0,7.86h2.73v19.61h-2.73v-19.61Z"/>
        <path class="cls-5" d="m269.9,190.1c-1.26-.63-2.21-1.57-2.83-2.83-.62-1.26-.94-2.84-.94-4.74v-3.23c0-1.88.32-3.44.95-4.69.63-1.25,1.57-2.18,2.83-2.81,1.26-.62,2.83-.94,4.72-.94,1.07,0,2.05.12,2.93.35.88.23,1.67.58,2.37,1.04s1.3,1.04,1.82,1.75l-2.03,1.79c-.67-.81-1.42-1.41-2.26-1.8-.84-.4-1.76-.59-2.77-.59-1.96,0-3.42.49-4.38,1.46-.97.98-1.45,2.45-1.45,4.43v3.23c0,2,.49,3.5,1.46,4.5.97,1,2.43,1.49,4.37,1.49,1.07,0,2.05-.19,2.93-.57.88-.38,1.67-.95,2.38-1.72l1.76,1.74c-.52.69-1.12,1.27-1.82,1.72-.69.45-1.48.79-2.37,1.02-.88.23-1.86.34-2.93.34-1.89,0-3.47-.31-4.73-.94Z"/>
        <path class="cls-5" d="m286.01,163.29h2.73v27.47h-2.73v-27.47Zm1.95,20.78l11.15-12.92h3.22l-14.9,16.74.53-3.82Zm5.57-3.93l1.59-2.57,8.18,13.19h-3.31l-6.46-10.62Z"/>
        <path class="cls-5" d="m309.91,190.01c-1.29-.69-2.27-1.69-2.94-3-.68-1.32-1.01-2.9-1.01-4.75v-2.21c0-1.94.33-3.6.98-4.97.65-1.37,1.59-2.42,2.83-3.14,1.24-.72,2.73-1.08,4.47-1.08,1.64,0,3.04.35,4.2,1.06,1.16.71,2.05,1.74,2.66,3.09.61,1.35.92,2.98.92,4.88v2.25h-14.2v-2.46h11.66v-.19c0-1.94-.46-3.44-1.37-4.51-.92-1.06-2.21-1.6-3.87-1.6-1.83,0-3.24.56-4.24,1.68-1,1.12-1.5,2.71-1.5,4.76v2.49c0,1.96.53,3.49,1.59,4.56,1.06,1.08,2.56,1.62,4.49,1.62.91,0,1.81-.19,2.7-.57s1.68-.91,2.38-1.61l1.85,1.78c-.96.93-2.04,1.65-3.26,2.16-1.21.51-2.44.76-3.67.76-1.82,0-3.37-.34-4.66-1.03Z"/>
        <path class="cls-5" d="m327.3,171.15h2.73v19.61h-2.73v-19.61Zm10.04,2.57c-.61-.21-1.32-.32-2.13-.32-1.64,0-2.92.44-3.82,1.31-.91.88-1.36,2.09-1.36,3.64l-.4-3.78c.72-1.17,1.66-2.08,2.83-2.73,1.17-.65,2.45-.97,3.83-.97.9,0,1.71.13,2.43.39.73.26,1.36.64,1.9,1.14l-1.76,2.27c-.4-.42-.91-.73-1.52-.95Z"/>
      </g>
    </g>
  </g>
</svg>