<?xml version="1.0" encoding="UTF-8"?>
<svg id="Layer_2" data-name="Layer 2" xmlns="http://www.w3.org/2000/svg" xmlns:xlink="http://www.w3.org/1999/xlink" viewBox="0 0 500 165">
  <defs>
    <style>
      .cls-1 {
        fill: url(#linear-gradient-2);
      }

      .cls-2 {
        letter-spacing: 0em;
      }

      .cls-3 {
        fill: #231f20;
        font-family: Bahnschrift, Bahnschrift;
        font-size: 201.72px;
        font-variation-settings: 'wght' 400, 'wdth' 100;
      }

      .cls-4 {
        fill: url(#linear-gradient-3);
      }

      .cls-5 {
        fill: url(#linear-gradient);
      }

      .cls-6 {
        fill: url(#linear-gradient-4);
      }
    </style>
    <linearGradient id="linear-gradient" x1="9.32" y1="152.23" x2="143.41" y2="17.15" gradientUnits="userSpaceOnUse">
      <stop offset="0" stop-color="#5b2d90"/>
      <stop offset=".12" stop-color="#6a3e98"/>
      <stop offset=".34" stop-color="#845ba7"/>
      <stop offset=".57" stop-color="#9770b1"/>
      <stop offset=".79" stop-color="#a37cb7"/>
      <stop offset="1" stop-color="#a781ba"/>
    </linearGradient>
    <linearGradient id="linear-gradient-2" x1="141.28" y1="209.07" x2="82.94" y2="74.09" gradientUnits="userSpaceOnUse">
      <stop offset="0" stop-color="#a781ba"/>
      <stop offset="1" stop-color="#3e246a"/>
    </linearGradient>
    <linearGradient id="linear-gradient-3" x1="5.72" y1="165.83" x2="101.5" y2="-2.83" gradientUnits="userSpaceOnUse">
      <stop offset="0" stop-color="#5b2d90"/>
      <stop offset=".97" stop-color="#a781ba"/>
    </linearGradient>
    <linearGradient id="linear-gradient-4" x1="122.79" y1="89.5" x2="467.03" y2="89.5" gradientUnits="userSpaceOnUse">
      <stop offset="0" stop-color="#8559a5"/>
      <stop offset=".5" stop-color="#7e52a1"/>
      <stop offset="1" stop-color="#73479c"/>
    </linearGradient>
  </defs>
  <g id="C-Astro">
    <g id="A">
      <path class="cls-5" d="m103.85,92.62c-1.61,1.29-3.25,2.58-4.92,3.85-3.36,2.56-6.72,5-10.07,7.3-.4.28-.8.56-1.2.83-11.33,7.71-22.5,13.94-32.78,18.45-7.86,3.46-23.6,30.36-30.09,31.7l10.89-31.7,1.96-5.7c7.6-3.53,15.87-8.11,24.44-13.58,6.46-4.12,13.1-8.75,19.75-13.83.21-.16.42-.32.63-.48,5.49-4.22,10.69-8.5,15.52-12.77,27.87-24.61,43.86-48.91,36.9-58.03-4.33-5.68-16.73-4.31-32.98,2.46,23.4-10.83,42.65-13.16,49.45-4.25,10.1,13.24-11,46.5-47.5,75.75Z"/>
      <path class="cls-1" d="m126.75,154.75h-21.86l-10.89-31.7-4.99-14.53-1.35-3.92c.4-.27.8-.55,1.2-.83,3.35-2.3,6.71-4.74,10.07-7.3,1.67-1.27,3.31-2.56,4.92-3.85l1.46,3.95,21.44,58.18Z"/>
      <path class="cls-4" d="m96.5,72.67c-4.83,4.31-9.99,8.6-15.41,12.8l-16.25-47.29-22.53,65.59s-4.27,12.43-4.67,13.58l-1.96,5.7-2.49,7.25-1.5,4.37-6.9,20.08H2.93l7.97-21.62,1.4-3.8,1.45-3.94,1.59-4.32L56.19,10.25h17.3l23.01,62.42Z"/>
    </g>
    <g>
      <text class="cls-3" transform="translate(132.64 154.75)"><tspan x="0" y="0">st</tspan><tspan class="cls-2" x="170.39" y="0">r</tspan><tspan x="254.51" y="0">o</tspan></text>
      <g>
        <path class="cls-6" d="m167.56,154.45c-5.29-1.18-10.23-2.95-14.82-5.32-4.6-2.36-8.83-5.32-12.71-8.86l11.92-14.68c5.52,4.2,11,7.35,16.45,9.46,5.45,2.1,10.83,3.15,16.15,3.15,7.94,0,13.9-1.23,17.88-3.69,3.97-2.46,5.96-6.16,5.96-11.08,0-3.28-1.08-5.75-3.25-7.39-2.17-1.64-4.86-2.74-8.08-3.3-3.22-.56-7.75-1.07-13.59-1.53-.53,0-1.08-.02-1.67-.05s-1.15-.08-1.67-.15c-.26,0-.53-.01-.79-.05-.26-.03-.53-.05-.79-.05-6.63-.52-12.25-1.49-16.84-2.91-4.6-1.41-8.42-4.05-11.47-7.93-3.05-3.87-4.58-9.42-4.58-16.65s1.48-13.23,4.43-18.02c2.95-4.79,7.35-8.39,13.2-10.79,5.84-2.4,13.17-3.59,21.96-3.59,5.32,0,10.39.49,15.22,1.48,4.83.98,9.44,2.45,13.84,4.38,4.4,1.94,8.63,4.38,12.71,7.34l-12.11,14.68c-5.12-3.28-10.16-5.75-15.12-7.39-4.96-1.64-9.8-2.46-14.53-2.46-6.83,0-11.95,1.17-15.37,3.5-3.42,2.33-5.12,5.83-5.12,10.49,0,2.76.97,4.83,2.91,6.21,1.94,1.38,4.38,2.3,7.34,2.76,2.96.46,7.16.85,12.61,1.18.39.07.8.1,1.23.1s.87.03,1.33.1h.59c.2,0,.39.03.59.1,7.16.46,13.25,1.41,18.27,2.86,5.02,1.45,9.24,4.3,12.66,8.57,3.41,4.27,5.12,10.44,5.12,18.52,0,7.36-1.58,13.44-4.73,18.27-3.15,4.83-7.9,8.46-14.23,10.88-6.34,2.43-14.3,3.64-23.88,3.64-6.04,0-11.71-.59-16.99-1.77Z"/>
        <path class="cls-6" d="m245.12,52.51h46.09v18.12h-46.09v-18.12Zm16.3,95.88c-3.84-4.56-5.76-11.31-5.76-20.24V22.77h20.09v105.58c0,2.5.49,4.42,1.48,5.76.99,1.35,2.43,2.02,4.33,2.02h9.65v19.11h-11.62c-8.27,0-14.33-2.28-18.17-6.84Z"/>
        <path class="cls-6" d="m318.79,52.51h20.09v102.24h-20.09V52.51Zm49.54,19.3c-2.69-1.12-5.81-1.67-9.36-1.67-6.37,0-11.31,1.76-14.82,5.27s-5.27,8.39-5.27,14.63l-2.07-19.7c3.15-6.11,7.22-10.85,12.21-14.23,4.99-3.38,10.5-5.07,16.55-5.07,4.66,0,8.88.67,12.66,2.02,3.78,1.35,7.07,3.33,9.9,5.96l-13.1,17.73c-1.77-2.17-4.01-3.81-6.7-4.92Z"/>
        <path class="cls-6" d="m419.35,151.01c-6.3-3.48-11.11-8.55-14.43-15.22-3.32-6.66-4.97-14.69-4.97-24.08v-16.65c0-9.26,1.66-17.19,4.97-23.79,3.31-6.6,8.12-11.62,14.43-15.07s13.89-5.17,22.75-5.17,16.45,1.72,22.75,5.17,11.11,8.47,14.43,15.07c3.31,6.6,4.97,14.53,4.97,23.79v16.94c0,9.32-1.66,17.29-4.97,23.88-3.32,6.6-8.13,11.64-14.43,15.12-6.3,3.48-13.89,5.22-22.75,5.22s-16.45-1.74-22.75-5.22Zm39.05-20.49c3.84-4.4,5.76-10.57,5.76-18.52v-16.94c0-7.94-1.92-14.08-5.76-18.42-3.84-4.33-9.28-6.5-16.3-6.5s-12.46,2.17-16.3,6.5c-3.84,4.33-5.76,10.47-5.76,18.42v16.94c0,7.95,1.92,14.12,5.76,18.52,3.84,4.4,9.27,6.6,16.3,6.6s12.46-2.2,16.3-6.6Z"/>
      </g>
    </g>
  </g>
</svg>